<svg width="83" height="83" viewBox="0 0 83 83" fill="none" xmlns="http://www.w3.org/2000/svg">
<rect x="2.49712" y="21.2275" width="62.1642" height="62.1642" rx="18.7642" transform="rotate(-17.536 2.49712 21.2275)" stroke="#111111" stroke-width="3.98"/>
<path d="M30.7762 51.3771C32.8756 57.1754 38.8351 59.2761 46.1679 56.959C53.8762 54.5233 57.5349 49.1889 55.6226 43.1372C54.122 38.3885 50.5388 36.5814 43.5998 37.1465L39.6682 37.4658C35.4657 37.7735 33.4625 37.0461 32.7925 34.9258C31.955 32.2753 33.8262 29.7407 37.4264 28.6031C41.0707 27.4515 44.1318 28.4519 45.339 31.3499L50.7724 29.633C48.8671 24.0648 43.0285 21.7315 36.0049 23.9509C29.0697 26.1424 25.3517 31.5197 27.1384 37.174C28.5761 41.7238 32.2524 43.6716 38.5532 43.1624L42.9905 42.8291C47.3104 42.5086 49.3636 43.3173 50.0894 45.6144C50.9269 48.2648 48.8546 51.0087 45.0115 52.2231C41.1242 53.4514 37.5795 52.4581 36.2979 49.6323L30.7762 51.3771Z" fill="#111111"/>
</svg>
